<?xml version="1.0" encoding="UTF-8"?><svg id="Layer_1" xmlns="http://www.w3.org/2000/svg" viewBox="0 0 216 92.21"><defs><style>.cls-1{stroke-width:0px;}</style></defs><path class="cls-1" d="m115.67,50.8c-10.64,0-19.3-11.39-19.3-25.4S105.03,0,115.67,0s19.3,11.39,19.3,25.4-8.66,25.4-19.3,25.4Zm0-45.49c-7.72,0-14,9.01-14,20.09s6.28,20.09,14,20.09,14-9.01,14-20.09-6.28-20.09-14-20.09Z"/><path class="cls-1" d="m113.06,92.21c-16.97,0-30.78-19.31-30.78-43.05S96.09,6.1,113.06,6.1s30.78,19.31,30.78,43.05-13.81,43.05-30.78,43.05Zm0-80.8c-14.05,0-25.47,16.93-25.47,37.75s11.43,37.75,25.47,37.75,25.47-16.93,25.47-37.75-11.43-37.75-25.47-37.75Z"/><path class="cls-1" d="m103.2,87.3c-16.8,0-30.47-14.22-30.47-31.7s13.67-31.7,30.47-31.7,30.47,14.22,30.47,31.7-13.67,31.7-30.47,31.7Zm0-58.1c-13.87,0-25.16,11.84-25.16,26.4s11.29,26.4,25.16,26.4,25.16-11.84,25.16-26.4-11.29-26.4-25.16-26.4Z"/><path class="cls-1" d="m98.38,73.58c-15.67,0-28.41-15.7-28.41-34.99S82.71,3.6,98.38,3.6s28.41,15.7,28.41,34.99-12.75,34.99-28.41,34.99Zm0-64.67c-12.74,0-23.11,13.32-23.11,29.68s10.37,29.68,23.11,29.68,23.11-13.32,23.11-29.68-10.37-29.68-23.11-29.68Z"/><path class="cls-1" d="m117.79,81.81h0c-5.24,0-10.02-2.37-13.44-6.67h0c-7.46-9.36-6.55-25.75,2.04-36.52,4.67-5.86,10.93-9.23,17.17-9.23,5.24,0,10.02,2.37,13.45,6.67,7.46,9.36,6.55,25.75-2.03,36.52-4.67,5.86-10.93,9.23-17.17,9.23Zm5.76-47.12c-4.61,0-9.36,2.63-13.02,7.23-7.13,8.95-8.04,22.37-2.04,29.91h0c2.43,3.06,5.65,4.67,9.3,4.67,4.61,0,9.36-2.63,13.02-7.23,7.13-8.95,8.04-22.37,2.03-29.91-2.43-3.06-5.65-4.67-9.3-4.67Z"/><path class="cls-1" d="m130.01,56.28c-.56,0-1.11-.04-1.68-.11-4.41-.58-8.22-3.34-10.72-7.75-2.36-4.17-3.28-9.39-2.58-14.69.7-5.3,2.94-10.1,6.3-13.51,3.56-3.62,7.95-5.29,12.37-4.71,4.41.58,8.22,3.34,10.72,7.75,2.36,4.17,3.28,9.39,2.58,14.69-1.38,10.5-8.81,18.33-16.99,18.33Zm1.99-35.58c-2.4,0-4.82,1.12-6.89,3.24-2.56,2.6-4.27,6.33-4.82,10.49-.55,4.16.14,8.2,1.94,11.38,1.66,2.93,4.08,4.75,6.8,5.11,5.92.78,11.62-5.35,12.72-13.66.55-4.16-.14-8.2-1.94-11.38-1.66-2.93-4.08-4.75-6.8-5.11-.33-.04-.66-.07-1-.07Z"/><path class="cls-1" d="m37.04,92.19v-18.21H0v-15.19L39.26,1.33h14.57v57.41h11.23v15.25h-11.23v18.21h-16.79Zm0-33.46v-30.93l-20.8,30.93h20.8Z"/><path class="cls-1" d="m187.97,92.19v-18.21h-37.04v-15.19L190.2,1.33h14.57v57.41h11.23v15.25h-11.23v18.21h-16.79Zm0-33.46v-30.93l-20.8,30.93h20.8Z"/></svg>