<?xml version="1.0" encoding="UTF-8"?><svg id="Layer_1" xmlns="http://www.w3.org/2000/svg" viewBox="0 0 383.18 383.85"><defs><style>.cls-1{fill:#13b247;}.cls-1,.cls-2,.cls-3,.cls-4,.cls-5,.cls-6{stroke-width:0px;}.cls-2{fill:#177ee5;}.cls-3{fill:#10993e;}.cls-4{fill:#d83f22;}.cls-5{fill:#fed401;}.cls-6{fill:#fe4b26;}</style></defs><path class="cls-5" d="m90.46,133.45c-5.31,10.43-10.07,21.07-12.59,32.59-6.22,28.39-2.49,55.41,11.08,81.08.57,1.08,1.02,2.24,1.53,3.36-21.46,12.43-42.92,24.86-64.38,37.29-.32-.37-.7-.7-.94-1.11-11.73-20.42-19.28-42.3-22.97-65.57-.71-4.47-.39-9.12-2.18-13.41v-31.49c.92-.36.71-1.2.78-1.9,1.18-12.05,3.29-23.93,6.74-35.54,4.45-14.95,10.09-29.4,18.53-42.61,21.47,12.44,42.94,24.88,64.4,37.32Z"/><path class="cls-6" d="m90.46,133.45c-21.47-12.44-42.94-24.88-64.4-37.32.16-.47.24-.98.49-1.39C57.9,43.37,103.09,12.41,162.4,2.2c4.97-.85,10.08-.63,14.94-2.2h14.22c0,24.98,0,49.96,0,74.94-27.43.55-52.02,9.03-73.41,26.4-10.25,8.32-18.79,18.18-25.77,29.4-.58.94-1.27,1.81-1.92,2.71Z"/><path class="cls-1" d="m26.09,287.76c21.46-12.43,42.92-24.86,64.38-37.29,6.4,9.67,13.19,19,21.79,26.89,21.93,20.12,47.75,30.54,77.44,31.42.62.02,1.24.08,1.86.12,0,24.98,0,49.96,0,74.94h-15.71c-3.18-1.58-6.68-1.18-10.04-1.67-46.61-6.88-85.77-27.75-117.28-62.85-8.66-9.65-16.49-19.95-22.43-31.57Z"/><path class="cls-4" d="m191.56,74.94c0-24.98,0-49.96,0-74.94h14.97c4.83,1.53,9.91,1.4,14.86,2.21,36.22,5.91,68.13,20.99,95.84,45,5.52,4.78,5.97,12.73.83,18.02-11.81,12.17-23.8,24.17-35.93,36.02-5.06,4.95-11.56,4.68-17.55-.16-13.76-11.13-29.26-18.64-46.42-22.83-8.74-2.13-17.69-2.54-26.59-3.32Z"/><path class="cls-3" d="m191.55,383.85c0-24.98,0-49.96,0-74.94,13.75-.75,27.28-2.62,40.28-7.51,6.25-2.36,12.06-5.65,18.17-8.27.45.75.91,1.49,1.34,2.24,12.02,20.8,24.04,41.6,36.06,62.4-6.51,4.83-13.95,7.9-21.31,11.04-18.57,7.91-37.9,12.86-58.07,14.32-.6.04-1.26-.05-1.52.73h-14.97Z"/><path class="cls-2" d="m287.42,357.77c-12.02-20.8-24.04-41.6-36.06-62.4-.44-.75-.9-1.49-1.34-2.24,10.5-6.79,20.35-14.35,28.64-23.82,8.45-9.66,15.27-20.33,20.25-32.17.42-1,1.16-1.94.81-3.44-1.31,0-2.67,0-4.02,0-26.81,0-53.62,0-80.43,0-10.84,0-15.41-4.62-15.41-15.55,0-15.12-.01-30.24,0-45.36,0-9.17,4.92-14.28,14-14.29,51-.04,102.01-.04,153.01,0,9.1,0,13.31,4.18,14.72,13.98,2.97,20.65,1.69,41.13-2.84,61.4-12.09,54.17-42.83,94.77-89.96,123.31-.42.25-.9.39-1.36.58Z"/></svg>